Coordinates
version=1
nRows=16
nColumns=33
inDegrees=yes

Units are S.I. units (second, meters, Newtons, ...)
Angles are in degrees.

endheader
time	ground_thorax_rot_x	ground_thorax_rot_y	ground_thorax_rot_z	ground_thorax_tx	ground_thorax_ty	ground_thorax_tz	clav_prot_r	clav_elev_r	scapula_abduction_r	scapula_elevation_r	scapula_upward_rot_r	scapula_winging_r	shoulder_elv_r	plane_of_elev_r	axial_rot_r	elbow_flexion_r	pro_sup_r	wrist_flex_r	wrist_dev_r	clav_prot_l	clav_elev_l	scapula_abduction_l	scapula_elevation_l	scapula_upward_rot_l	scapula_winging_l	shoulder_elv_l	plane_of_elev_l	axial_rot_l	elbow_flexion_l	pro_sup_l	wrist_flex_l	wrist_dev_l	
4.8100	-40.732165	3.670771	-5.665834	-168.803512	904.183316	-3.240653	13.299698	-45.000000	44.322784	-45.000000	-44.999851	1345.247053	-459.614182	144.091495	180.000000	13.159511	67.612728	29.134024	11.551354	14.639010	40.179687	-41.837033	-45.000000	-39.194563	-993.706182	-1533.292002	135.885534	-180.000000	1092.729890	-311.936097	6.816567	-24.058022	
4.8200	-40.800683	3.648952	-5.515516	-165.585082	904.162835	-3.087136	13.240024	-45.000000	44.405586	-45.000000	-44.999732	1345.304875	-459.288714	143.853520	180.000000	13.377613	67.519623	28.989024	11.390758	14.629637	40.297961	-42.047871	-45.000000	-38.629568	-993.575065	-1533.278184	135.900210	-180.000000	1092.702067	-312.284289	6.841045	-24.042418	
4.8300	-40.871455	3.614061	-5.343486	-162.254402	903.894902	-2.939801	13.166636	-45.000000	44.475327	-45.000000	-44.999521	1345.390296	-458.976905	143.623869	180.000000	13.579674	67.408487	28.832115	11.234711	14.641414	40.424255	-42.266227	-45.000000	-38.085234	-993.461120	-1533.281350	135.909749	-180.000000	1092.655602	-312.741702	6.897509	-24.031994	
4.8400	-40.943581	3.565652	-5.150930	-158.818166	903.367105	-2.797343	13.080157	-45.000000	44.531652	-45.000000	-44.999141	1345.506636	-458.684273	143.405110	180.000000	13.765523	67.277567	28.661594	11.082993	14.691232	40.565530	-42.485809	-45.000000	-37.568376	-993.363965	-1533.299180	135.906201	-180.000000	1092.589723	-313.320639	6.990469	-24.027807	
4.8500	-41.013867	3.499698	-4.934889	-155.284260	902.569850	-2.657990	12.983236	-45.000000	44.582950	-45.000000	-44.998462	1345.654774	-458.414882	143.207308	180.000000	13.941823	67.123994	28.480481	10.935957	14.800815	40.726053	-42.708594	-45.000000	-37.093235	-993.286996	-1533.333470	135.892763	-180.000000	1092.505881	-314.043895	7.121546	-24.028631	
4.8600	-41.081707	3.411931	-4.697035	-151.660834	901.496203	-2.519654	12.880751	-45.000000	44.631972	-45.000000	-44.997244	1345.833577	-458.173582	143.026538	180.000000	14.105705	66.940000	28.290363	10.799016	14.940148	40.896646	-42.926401	-45.000000	-36.657484	-993.232056	-1533.386700	135.871028	-180.000000	1092.402994	-314.925613	7.293789	-24.032544	
4.8700	-41.144993	3.302790	-4.440410	-147.956141	900.141764	-2.380049	12.775008	-45.000000	44.678907	-45.000000	-44.995064	1346.040120	-457.962670	142.857259	180.000000	14.255121	66.715494	28.093904	10.679102	15.075929	41.066952	-43.136868	-45.000000	-36.242457	-993.202323	-1533.468059	135.851636	-180.000000	1092.281035	-315.975015	7.509555	-24.037935	
4.8800	-41.201018	3.173696	-4.165584	-144.177595	898.504853	-2.236844	12.669047	-45.000000	44.720090	-45.000000	-44.991156	1346.271506	-457.786173	142.695391	180.000000	14.381856	66.438062	27.889925	10.582920	15.189954	41.233928	-43.331355	-45.000000	-35.843016	-993.200207	-1533.575073	135.829922	-179.999999	1092.140849	-317.193032	7.771992	-24.043401	
4.8900	-41.246470	3.029533	-3.869449	-140.331784	896.586691	-2.087906	12.567923	-45.000000	44.746754	-45.000000	-44.984165	1346.532312	-457.645270	142.546743	180.000000	14.477072	66.098930	27.682477	10.519221	15.306811	41.397513	-43.523485	-45.000000	-35.474431	-993.229991	-1533.706865	135.810630	-179.999999	1091.983555	-318.590757	8.079847	-24.043949	
4.9000	-41.280961	2.873803	-3.561686	-136.424588	894.391907	-1.931658	12.469403	-45.000000	44.760355	-45.000000	-44.971617	1346.819400	-457.543255	142.401329	180.000000	14.535850	65.688061	27.471428	10.493991	15.378841	41.548747	-43.703368	-44.999999	-35.108385	-993.292094	-1533.867551	135.795977	-179.999999	1091.809439	-320.154454	8.433387	-24.036453	
4.9100	-41.302502	2.708789	-3.244131	-132.461389	891.928436	-1.767304	12.369211	-45.000000	44.759335	-45.000000	-44.949206	1347.137480	-457.479603	142.266074	180.000000	14.557478	65.199907	27.262143	10.512803	15.436684	41.688712	-43.880879	-44.999999	-34.753617	-993.392081	-1534.057534	135.796553	-179.999998	1091.621693	-321.875821	8.824473	-24.013745	
4.9200	-41.311624	2.535640	-2.923340	-128.447535	889.207486	-1.594969	12.263748	-45.000000	44.754493	-45.000000	-44.908880	1347.483510	-457.458195	142.141401	180.000000	14.546404	64.633252	27.053544	10.574011	15.487167	41.822302	-44.055092	-44.999998	-34.411764	-993.527626	-1534.273573	135.809602	-179.999996	1091.424419	-323.729430	9.245588	-23.970640	
4.9300	-41.305253	2.357157	-2.596808	-124.388474	886.242842	-1.415528	12.158625	-45.000000	44.741149	-45.000000	-44.837150	1347.860730	-457.478060	142.039124	180.000000	14.501526	63.995085	26.855419	10.683703	15.563249	41.942250	-44.239342	-44.999996	-34.108250	-993.710303	-1534.512256	135.845562	-179.999994	1091.225047	-325.700143	9.678410	-23.896747	
4.9400	-41.290055	2.188121	-2.296432	-120.290396	883.050310	-1.230371	12.056329	-45.000000	44.729515	-45.000000	-44.707249	1348.260887	-457.544766	141.936915	180.000000	14.423182	63.300251	26.661272	10.837107	15.547424	42.040457	-44.411901	-44.999992	-33.764883	-993.923901	-1534.784195	135.897464	-179.999989	1091.025589	-327.701271	10.115623	-23.792281	
4.9500	-41.263819	2.039257	-2.033823	-116.160528	879.646823	-1.041100	11.954676	-45.000000	44.723640	-45.000000	-44.478499	1348.686960	-457.661728	141.853185	180.000000	14.318559	62.565051	26.478587	11.033299	15.464554	42.120413	-44.572281	-44.999986	-33.382831	-994.175763	-1535.083670	135.967395	-179.999980	1090.837834	-329.654334	10.535602	-23.656805	
4.9600	-41.229900	1.899736	-1.801183	-112.007956	876.050257	-0.849502	11.852085	-45.000000	44.737612	-45.000000	-44.152472	1349.134888	-457.831510	141.796936	180.000000	14.193306	61.802507	26.294438	11.254162	15.355041	42.201171	-44.708634	-44.999975	-32.995542	-994.445986	-1535.396067	136.015853	-179.999965	1090.663629	-331.485432	10.918559	-23.493883	
